<svg xmlns="http://www.w3.org/2000/svg" width="109.672" height="21.381" viewBox="0 0 109.672 21.381"><defs><style>.a{fill:#000092;}</style></defs><path class="a" d="M87.339,0s-4.753,14.5-4.818,14.7c-.346,1.094,1.39,1.351,1.839,1.5a6.21,6.21,0,0,1-4.13,1.5,1.435,1.435,0,0,1-1.38-1.572,7.656,7.656,0,0,1,.323-1.979c1.254-3.71,3.593-10.474,3.592-11.607,0-.755-.311-1.073-1.445-1.715ZM11.308.715a16.709,16.709,0,0,1,5.313.58c-.179,1.144-.347,2.283-.528,3.365l-2.193,0c.244-2.072-1.185-2.734-2.71-2.731-1.033,0-3.346.366-3.343,2.1.005,3.28,7.878,3.087,7.885,7.729.008,5.194-5.714,5.782-9.241,5.788A12.487,12.487,0,0,1,0,16.084c.4-1.273.767-2.632,1.064-3.751l2.32,0c-.49,2.881,2.6,3.783,4.351,3.78a1.977,1.977,0,0,0,2.1-1.972c0-2.854-7.353-3.334-7.36-7.664C2.464,1.848,8.422.72,11.308.715Zm37.669.5c.886,0,2.3.472,2.3,1.571,0,1.361-2.08,1.447-2.425,1.447-.886,0-2.3-.406-2.3-1.505C46.55,1.5,48.289,1.219,48.978,1.217ZM23.823,3.5c-.233.992-1.016,3.061-1.016,3.061l1.948-.04,0,1.02-2.108,0a75.325,75.325,0,0,0-2.583,7.366c0,1.148,1.87.8,2.488.691-1.549,1.052-2.813,1.8-4.059,1.8a1.931,1.931,0,0,1-1.968-.959,3.039,3.039,0,0,1,0-1.744c0-.328,1.569-4.73,2.355-7.043-.323.014-.848.037-1.428.008l0-1C19.4,6.627,22.042,5,23.823,3.5ZM43.212,6.081a1.239,1.239,0,0,1,1.38,1.244,1.4,1.4,0,0,1-1.507,1.38c-.328,0-.722-.261-1.05-.261-2.854,0-4.206,7.19-4.669,9.041l-3.636,0Q35.269,12.4,36.2,8.437c.2-.738-.779-.91-1.18-1.517,1.629-.172,3.329-.436,5.092-.682a19.214,19.214,0,0,0-.279,2.61c1.076-1.04,1.856-2.764,3.381-2.766Zm7.556-.056-2.623,9.05c-.064.633.495.839.921.838a4.867,4.867,0,0,0,1.56-.371,6.446,6.446,0,0,1-4.444,2.212c-.689,0-2.228-.411-1.837-1.59L46.3,8.352c.345-.858-1.083-.954-1.309-1.586Zm57.655.085a1.091,1.091,0,0,1,1.248,1.179c0,1.558-1.588.583-2.784,1.339-3.146,1.99-3.513,5.734-4.307,8.468l-.1.418-3.667,0,2.6-9.031c.076-.639-.733-.922-1.178-1.538,1.629-.172,3.2-.437,5.088-.687-.009.093-.307,1.378-.486,2.653C106.373,7.851,106.849,6.113,108.423,6.11ZM59.617,8.286c-2.444,0-3.995,4.533-3.993,5.583,0,.541.282,1.771,1.118,1.769,2.28,0,3.864-4.467,3.862-5.714,0-.344,0-1.64-.987-1.639ZM58.089,5.951q-.431,1.3-.714,1.944a9.614,9.614,0,0,1,4.468-1.975c2.1,0,2.954,1.472,2.957,3.21.005,3.346-3.563,8.075-7.335,8.081a12.12,12.12,0,0,1-2.413-.523c-.123.13-1.125,3.459-1.125,3.415,0,.918,1.123,1.184,1.309,1.267l-6.815.011a5.041,5.041,0,0,0,1.756-1.622c2.26-7.786,3.388-11.708,3.448-11.912.131-.442-1.007-1.085-1.025-1.218.168-.017,3.461-.436,5.488-.678ZM73.655,7.608c-2.756,0-4.124,5.567-4.123,6.7,0,.263.135,2.1,1.184,2.1,2.936,0,4.19-5.517,4.188-6.83,0-.426-.02-1.968-1.249-1.966Zm-.462-1.443c2.2,0,5.905.3,5.911,3.8.006,4.117-5.04,7.618-8.189,7.623-2.263,0-5.709-.631-5.714-3.927-.007-4.281,4.777-7.486,7.992-7.492ZM30.027,7.414c-1.23,0-2.335,2.529-2.349,3.2a2.367,2.367,0,0,0,0,.595.539.539,0,0,0,.465,0c1.845-.77,2.805-1.468,2.8-3.076C30.946,7.708,30.683,7.413,30.027,7.414Zm1.179-1.445c1.23,0,3.019.717,3.021,2.292,0,2.8-6.771,4.629-7.346,4.894a2.112,2.112,0,0,0,2.305,1.872,9.388,9.388,0,0,0,3.588-1.166A7.589,7.589,0,0,1,26.7,17.391c-2.263,0-3.873-1.339-3.876-3.537-.006-4.117,4.974-7.88,8.385-7.886Zm62.065,1.74c-2.3,0-4.06,4.714-4.058,6.108,0,.361.15,1.64.921,1.639,2.1,0,4.19-5.632,4.189-6.5C94.322,8.428,94.108,7.707,93.271,7.708Zm-.659-1.574a3.258,3.258,0,0,1,2.419,1.178l.151-1.029c.205.03,3.32.008,3.32.008l-2.6,9.859c.114.1.2.125.528.125a2.883,2.883,0,0,0,1.8-.823,3.845,3.845,0,0,1-3.245,2.226c-.979,0-1.769-1.711-2.136-2.8-1.879,1.726-3.179,2.674-4.819,2.676-2.181,0-3.021-1.75-3.023-3.341-.005-3.231,3.579-8.075,7.6-8.081Z" transform="translate(0)"/></svg>
